<?xml version="1.0" encoding="utf-8"?>
<!-- Generator: Adobe Illustrator 22.0.0, SVG Export Plug-In . SVG Version: 6.00 Build 0)  -->
<svg version="1.1" xmlns="http://www.w3.org/2000/svg" xmlns:xlink="http://www.w3.org/1999/xlink" x="0px" y="0px"
	 viewBox="0 0 512 512" style="enable-background:new 0 0 512 512;" xml:space="preserve">
<style type="text/css">
	.st0{display:none;}
	.st1{display:inline;}
	.st2{fill:#C8C8C8;}
	.st3{fill:none;stroke:#C8C8C8;stroke-width:6;stroke-miterlimit:10;}
	.st4{fill:none;stroke:#ED1C24;stroke-width:6;stroke-miterlimit:10;}
	.st5{fill:none;stroke:#FF0000;stroke-width:6;stroke-miterlimit:10;}
	.st6{fill:#FF0000;}
</style>
<g id="Layer_1" class="st0">
	<g class="st1">
		<path d="M256,506c-66.8,0-129.6-26-176.8-73.2C32,385.6,6,322.8,6,256S32,126.4,79.2,79.2C126.4,32,189.2,6,256,6
			s129.6,26,176.8,73.2C480,126.4,506,189.2,506,256s-26,129.6-73.2,176.8S322.8,506,256,506z"/>
		<path class="st2" d="M256,12c32.9,0,64.9,6.4,95,19.2c29.1,12.3,55.1,29.9,77.6,52.3c22.4,22.4,40,48.5,52.3,77.6
			c12.7,30.1,19.2,62,19.2,95s-6.4,64.9-19.2,95c-12.3,29.1-29.9,55.1-52.3,77.6c-22.4,22.4-48.5,40-77.6,52.3
			c-30.1,12.7-62,19.2-95,19.2s-64.9-6.4-95-19.2c-29.1-12.3-55.1-29.9-77.6-52.3c-22.4-22.4-40-48.5-52.3-77.6
			c-12.7-30.1-19.2-62-19.2-95s6.4-64.9,19.2-95c12.3-29.1,29.9-55.1,52.3-77.6c22.4-22.4,48.5-40,77.6-52.3
			C191.1,18.4,223.1,12,256,12 M256,0C114.6,0,0,114.6,0,256s114.6,256,256,256s256-114.6,256-256S397.4,0,256,0L256,0z"/>
	</g>
	<g class="st1">
		<g>
			<circle class="st3" cx="256" cy="256" r="250"/>
		</g>
		<g>
			<line class="st3" x1="256" y1="256" x2="256" y2="506"/>
			<line class="st3" x1="256" y1="256" x2="381" y2="472.5"/>
			<line class="st3" x1="256" y1="256" x2="472.5" y2="381"/>
			<line class="st3" x1="256" y1="256" x2="506" y2="256"/>
			<line class="st3" x1="256" y1="256" x2="472.5" y2="131"/>
			<line class="st3" x1="256" y1="256" x2="381" y2="39.5"/>
			<line class="st3" x1="256" y1="256" x2="256" y2="6"/>
			<line class="st3" x1="256" y1="256" x2="131" y2="39.5"/>
			<line class="st3" x1="256" y1="256" x2="39.5" y2="131"/>
			<line class="st3" x1="256" y1="256" x2="6" y2="256"/>
			<line class="st3" x1="256" y1="256" x2="39.5" y2="381"/>
			<line class="st3" x1="256" y1="256" x2="131" y2="472.5"/>
		</g>
	</g>
</g>
<g id="Layer_1_copy">
	<line class="st4" x1="256" y1="256" x2="39.5" y2="381"/>
	<line class="st5" x1="256" y1="256" x2="131" y2="472.5"/>
	<g>
		<g>
			<path class="st6" d="M115.1,391.4c15.9-22.5,50.9-27.5,58.9-56.4c0.3-1.2-1.1-2.4-2.2-1.7c-28.5,17.9-55.7,37.9-81.2,59.8
				c-1.5,1.3,0.7,3.4,2.1,2.1c25.3-21.8,52.2-41.6,80.6-59.4c-0.7-0.6-1.5-1.1-2.2-1.7c-7.7,28-42.9,33.6-58.6,55.6
				C111.4,391.4,114,392.9,115.1,391.4L115.1,391.4z"/>
		</g>
	</g>
	<g>
		<g>
			<path class="st6" d="M123.1,373c14.7-11.1,29.9-21.5,45.5-31.2c-0.8-0.4-1.5-0.9-2.3-1.3c1.1,12.2-10.8,21.3-19.2,28.4
				c-9,7.6-18.7,14.4-28.8,20.3c-20,11.7-41.8,19.9-64.5,24.4c0.5,0.8,1,1.7,1.5,2.5c26.4-30.9,56.9-65.5,100.4-68.6
				c-0.5-0.4-1-0.7-1.4-1.1c1.6,4.9-2.4,10.4-4.8,14.5c-2.3,3.9-4.9,7.6-7.8,11.1c-4.9,6-10.4,11.5-16.3,16.5
				c-12.7,10.8-27.3,19.2-42.2,26.5c0.7,0.7,1.4,1.4,2.1,2.1c17.3-26.2,40.3-48.2,67.3-64.3c-0.7-0.7-1.4-1.4-2.1-2.1
				c-11.7,21.7-27.2,40.9-45.9,56.9c0.7,0.7,1.4,1.4,2.1,2.1c6.9-8.3,14.4-16,22.7-23c1.5-1.3-0.7-3.4-2.1-2.1
				c-8.2,7-15.8,14.7-22.7,23c-1.2,1.5,0.6,3.4,2.1,2.1c18.9-16.2,34.6-35.6,46.4-57.5c0.7-1.3-0.7-2.8-2.1-2.1
				c-27.5,16.3-50.8,38.7-68.4,65.4c-0.9,1.3,0.8,2.7,2.1,2.1c16.6-8.1,32.6-17.6,46.4-30c6.4-5.8,12.2-12.2,17.2-19.3
				c4.1-5.8,11.4-15,8.9-22.6c-0.2-0.6-0.8-1.1-1.4-1.1c-44.4,3.2-75.5,37.8-102.5,69.5c-1,1.2,0,2.8,1.5,2.5
				c24.6-4.9,48.1-14.2,69.5-27.3c10.5-6.4,20.4-13.8,29.5-22c7.8-6.9,16.7-15.4,15.7-26.7c-0.1-1.1-1.2-1.9-2.3-1.3
				c-15.6,9.8-30.8,20.2-45.5,31.2C120.1,371.6,121.6,374.2,123.1,373L123.1,373z"/>
		</g>
	</g>
	<g>
		<g>
			<path class="st6" d="M114.8,372.1c1.6,8.6,3,17.2,4,25.9c0.5,3.9,0.9,7.8,1.3,11.8c0.2,1.8,0.9,4.2,0.5,5.9
				c-0.7,3.8-2.3,2.9-4.7,1c-10.1-8.1-20.4-17-27.1-28.2c-1.7-2.9-3.2-6-4.4-9.2c-0.3-1-1.4-3.4-1.3-4.4c0.5-4.6,5.9-2.7,8.1-1.7
				c6.5,3,11.9,9,17.1,13.9c11.2,10.5,21.6,21.8,31.2,33.7c0.6-0.8,1.2-1.6,1.8-2.4c-16.8-7.7-31.5-19-43.1-33.3
				c0.1,0.6,0.2,1.2,0.2,1.8c2-4.2,15.9,10.4,17.4,12.2c3.2,3.8,16.2,20,7,23.5c0.6,0.2,1.1,0.5,1.7,0.7
				c-9.9-17.8-18.3-36.2-25.2-55.4c-0.7,0.6-1.5,1.1-2.2,1.7c11.6,6.9,22.3,15,32,24.4c1.3,1.3,3-0.3,2.4-1.8
				c-5.4-12.2-8.5-25.2-9.1-38.6c-0.9,0.4-1.7,0.7-2.6,1.1c6.6,5.7,12.7,11.9,18.3,18.5c0.8,1,2.6,0.2,2.6-1.1
				c-0.3-9.6-0.5-19.3-0.8-28.9c-0.9,0.4-1.7,0.7-2.6,1.1c4,4.6,7.5,9.5,10.6,14.8c0.7,1.1,2.4,0.9,2.7-0.4
				c2.2-7.3,4.5-14.6,6.7-21.9c-0.9,0.1-1.8,0.2-2.7,0.4c5.4,8.8,12.3,16.3,20.7,22.3c0.7,0.5,2,0,2.2-0.9c1.5-9,3-18,4.6-27
				c-0.8,0.2-1.7,0.4-2.5,0.7c3.7,4.3,6.2,9,7.8,14.4c0.4,1.4,2.6,1.5,2.9,0c2-8.7,4.5-17.2,7.5-25.5c-0.9,0.1-1.8,0.2-2.7,0.4
				c1,2.3,5.4,17.7,10.3,11.7c2.3-2.9,2.1-8.7,2.6-12.1c1-5.8,2-11.5,2.9-17.3c-0.9,0.1-1.8,0.2-2.7,0.4c1.2,1.8,2.3,3.6,3.5,5.4
				c0.5,0.8,1.7,1.1,2.4,0.3c9.9-11.1,19-22.7,27.3-35c0.9-1.3-0.8-2.7-2.1-2.1c-13.7,6.9-26.3,15.1-38.6,24.1
				c-11.5,8.4-23.5,15.3-36.4,21.3c-12.5,5.8-25.2,11.3-36.9,18.6c-12.3,7.7-22.8,17.5-36.1,23.8c-11,5.2-23.1,10.2-29,21.7
				c-5.4,10.4-1.7,20.5,6.1,28.4c5.1,5.1,10.9,9.6,16.5,14.1c2.4,1.9,4.6,4,7.8,3.9c5.4-0.3,10.1-5.3,13.5-9
				c11-12,20.2-27.1,26.9-41.8c-0.9-0.3-1.9-0.5-2.8-0.8c-1.6,18.5-8,36.1-18.6,51.4c0.9,0.5,1.7,1,2.6,1.5
				c13-21.4,28-41.5,44.7-60.2c-0.8-0.5-1.7-1-2.5-1.5c-3.8,11.8-9.2,23-16.3,33.1c-7,10-15.7,19.6-28,22.5c0.6,0.5,1.3,1,1.9,1.4
				c0.1-12.9,9.2-25,16.1-35.4c7-10.7,14.8-20.8,23.2-30.4c-0.8-0.5-1.7-1-2.5-1.5c-1.4,8.4-3.5,16.6-6.3,24.6
				c-1.5,4.3-3.3,8.5-5.3,12.6c-1.3,2.7-3.4,9.3-6.2,10.8c0.6,0.1,1.2,0.2,1.8,0.2c0.1,0.2,0.2,0.4,0.2,0.6c-0.6,0.3-1.2,0.7-1.8,1
				c0.1,0,0.2,0.1,0.3,0.1c1.9,0.5,2.7-2.4,0.8-2.9c-0.1,0-0.2-0.1-0.3-0.1c-0.8-0.2-1.6,0.3-1.8,1c-0.1,0.2-0.1,0.3-0.2,0.5
				c-0.2,0.5,0,1.1,0.4,1.5c0.1,0.1,0.2,0.2,0.3,0.3c0.4,0.5,1.3,0.5,1.8,0.2c2.9-1.6,4.2-5.9,5.7-8.7c2.1-4,3.9-8.1,5.6-12.3
				c3.7-9.2,6.3-18.9,7.9-28.7c0.2-1.3-1.4-2.7-2.5-1.5c-9,10.3-17.3,21.1-24.7,32.5c-6.9,10.5-15.4,22.3-15.5,35.4
				c0,1,1,1.7,1.9,1.4c11.9-2.9,20.7-11.6,27.8-21.1c8.2-11.1,14.4-23.5,18.6-36.6c0.4-1.4-1.5-2.6-2.5-1.5
				c-16.9,18.9-32,39.2-45.1,60.8c-1,1.7,1.5,3.1,2.6,1.5c10.9-15.8,17.3-33.9,19-52.9c0.1-1.4-2.2-2.1-2.8-0.8
				c-5.3,11.7-12.4,23-20,33.3c-3.9,5.3-8.4,11.4-14.2,14.7c-2,1.2-3.8,1.8-6,0.9c-2.6-1-5.6-4.3-7.8-6.1c-2.9-2.3-5.7-4.7-8.5-7.2
				c-4.5-4-9.2-8.6-10.9-14.5c-2-7.1,1.2-14.3,6-19.5c8.7-9.7,22.1-12.9,32.9-19.3c10.7-6.4,19.8-14.9,30.6-21.2
				c10.7-6.2,22.1-11.2,33.2-16.4c12.9-6,24.9-12.9,36.4-21.3c12.4-9,25-17.2,38.6-24.1c-0.7-0.7-1.4-1.4-2.1-2.1
				c-8.2,12-17.1,23.5-26.8,34.4c0.8,0.1,1.6,0.2,2.4,0.3c-1.2-1.8-2.3-3.6-3.5-5.4c-0.6-1-2.5-1-2.7,0.4
				c-1.1,6.7-2.3,13.5-3.4,20.2c-0.3,1.5-0.3,3.4-0.8,4.8c-0.1,0.6-0.2,1.3-0.3,1.9c-0.8,1-1.4,1-1.5-0.2c-1.7-1.4-3.4-7.7-4.3-9.7
				c-0.6-1.3-2.3-0.7-2.7,0.4c-3.1,8.3-5.6,16.8-7.5,25.5c1,0,1.9,0,2.9,0c-1.7-5.9-4.5-11.1-8.5-15.7c-0.7-0.8-2.3-0.4-2.5,0.7
				c-1.5,9-3,18-4.6,27c0.7-0.3,1.5-0.6,2.2-0.9c-8-5.7-14.5-12.8-19.6-21.2c-0.7-1.1-2.4-0.9-2.7,0.4c-2.2,7.3-4.5,14.6-6.7,21.9
				c0.9-0.1,1.8-0.2,2.7-0.4c-3.2-5.5-6.9-10.6-11-15.4c-0.9-1-2.6-0.2-2.6,1.1c0.3,9.6,0.5,19.3,0.8,28.9c0.9-0.4,1.7-0.7,2.6-1.1
				c-5.6-6.7-11.7-12.8-18.3-18.5c-0.9-0.8-2.6-0.3-2.6,1.1c0.6,13.9,3.8,27.3,9.5,40.1c0.8-0.6,1.6-1.2,2.4-1.8
				c-9.9-9.6-20.8-17.9-32.6-24.9c-1.1-0.6-2.7,0.4-2.2,1.7c7,19.4,15.5,38.1,25.5,56.1c0.3,0.5,1.1,0.9,1.7,0.7
				c12.2-4.6,0.5-20.7-4.2-26.7c-2.6-3.3-19.2-22.7-23.6-13.4c-0.3,0.7-0.2,1.3,0.2,1.8c11.8,14.5,26.7,26,43.7,33.7
				c1.6,0.7,2.9-1,1.8-2.4c-10.2-12.7-21.2-24.6-33.2-35.6c-5.1-4.7-10.5-10.5-17.1-13.1c-3.3-1.3-9.8-2.4-11.1,2.2
				c-1.3,4.3,2.3,10.8,4.2,14.5c3,5.8,7,11,11.4,15.8c4.8,5.2,10.2,9.8,15.6,14.3c2.4,2,7.2,7.4,10.8,4.7c2.1-1.6,1.6-4.6,1.4-6.8
				c-0.4-4.9-0.9-9.8-1.5-14.7c-1.2-9.6-2.6-19.2-4.4-28.7C117.4,369.4,114.5,370.2,114.8,372.1L114.8,372.1z"/>
		</g>
	</g>
	<g>
		<g>
			<path class="st6" d="M160.7,375.4c-11.2,22.1-25.9,42.1-43.6,59.4c0.8,0.6,1.6,1.2,2.4,1.8c12.6-27.5,28.2-53.5,46.5-77.6
				c-0.9-0.3-1.9-0.5-2.8-0.8c-1.1,17.4-8.7,33.4-19.4,46.9c0.8,0.6,1.6,1.2,2.4,1.8c9.6-19.8,22.6-37.5,38.7-52.6
				c-0.8-0.5-1.7-1-2.5-1.5c-3.2,13.5-9,26.1-17.2,37.3c0.9,0.5,1.7,1,2.6,1.5c6.4-13.5,13.3-26.7,20.9-39.6c-0.9-0.5-1.7-1-2.6-1.5
				c-7.6,14.5-16.5,28.2-26.5,41.1c0.8,0.6,1.6,1.2,2.4,1.8c7.8-14.6,16.2-28.9,26.2-42.1c-0.9-0.4-1.8-0.8-2.7-1.2
				c-8.8,23.3-21.8,44.8-38.3,63.6c0.8,0.5,1.7,1,2.5,1.5c8.6-21.5,18.2-42.5,28.7-63.1c-0.9-0.4-1.8-0.8-2.7-1.2
				c-3.4,14.3-9.6,27.5-18.5,39.2c0.9,0.5,1.7,1,2.6,1.5c4.7-9.2,10.5-17.8,17.3-25.6c-0.8-0.6-1.6-1.2-2.4-1.8
				c-8.6,13.5-17.6,26.9-26.8,40c0.9,0.4,1.8,0.8,2.7,1.2c0.5-1.2,1-2.4,1.5-3.6c0.7-1.8-2.2-2.6-2.9-0.8c-0.5,1.2-1,2.4-1.5,3.6
				c-0.7,1.7,1.8,2.4,2.7,1.2c9.3-13.1,18.2-26.5,26.8-40c0.9-1.4-1.2-3.1-2.4-1.8c-7,8-12.9,16.7-17.7,26.2c-0.9,1.8,1.4,3,2.6,1.5
				c9-11.9,15.4-25.4,18.8-39.9c0.4-1.6-1.9-2.7-2.7-1.2c-10.6,20.8-20.3,42.1-29,63.8c-0.6,1.4,1.6,2.5,2.5,1.5
				c16.9-19.1,30.1-41,39.1-64.9c0.7-1.7-1.8-2.4-2.7-1.2c-10,13.2-18.4,27.5-26.2,42.1c-0.8,1.4,1.3,3.2,2.4,1.8
				c10.2-13.1,19.3-27,27-41.7c0.9-1.7-1.6-3.2-2.6-1.5c-7.6,12.9-14.5,26.1-20.9,39.6c-0.8,1.8,1.4,3.1,2.6,1.5
				c8.4-11.4,14.3-24.2,17.5-38c0.3-1.5-1.4-2.5-2.5-1.5c-16.2,15.2-29.5,33.2-39.2,53.2c-0.7,1.4,1.2,3.2,2.4,1.8
				c11.2-14.2,19.2-30.8,20.3-49.1c0.1-1.7-2-1.8-2.8-0.8c-18.3,24.1-33.9,50-46.5,77.6c-0.7,1.5,1.1,3.1,2.4,1.8
				c17.9-17.5,32.8-37.7,44.1-60C164.2,375.2,161.6,373.7,160.7,375.4L160.7,375.4z"/>
		</g>
	</g>
	<g>
		<g>
			<path class="st6" d="M108.3,422.6c14.7-2.9,27.1-13.2,38.8-22c12.9-9.6,25.5-19.6,37.8-30c9.7-8.2,11.4-25.9,4.7-36.4
				c-6.9-10.7-21-18.2-33.9-13.8c-17.6,6.1-31.2,16.5-46.4,26.7c-13.8,9.2-28.4,17-43.7,23.5c2.4-1,4.8-2,7.2-3
				c-4.4,1.9-8.9,3.6-13.5,5.3c7.7,18.3,15.4,36.6,23.1,54.8c16.3-11.4,33.5-21.3,51.2-30.3c9.8-5,22-9,30-16.7
				c11.3-11,13-29.4,3.3-41.9c-4.3-5.6-9.7-9.7-16.6-11.7c-8.5-2.4-16.6-0.5-24.3,3.2c-14.1,6.9-19.1,28.1-10.8,41
				c9.3,14.5,25.9,18.1,41,10.8c0.3-0.1,0.5-0.2,0.8-0.4c-7.7,1-15.4,2-23.1,3c0.3,0.1,0.6,0.2,0.8,0.3c-4.4-2.6-8.8-5.1-13.2-7.7
				c0.2,0.3,0.4,0.5,0.6,0.8c-2.6-4.4-5.1-8.8-7.7-13.2c0,0.3,0.1,0.6,0.1,1c1-7.7,2-15.4,3-23.1c5.1-9.6,11.4-9.8,4.6-6.5
				c-1.7,0.8-3.3,1.6-4.9,2.4c-3.3,1.6-6.6,3.2-9.9,4.9c-6.3,3.2-12.5,6.4-18.7,9.8C76.2,360.3,64,367.7,52.2,376
				c-12.3,8.7-18.4,23-12.3,37.5c5.4,12.8,21.3,22.5,35.4,17.4c18.8-6.8,37.2-15.1,54.4-25.5c14.9-9,28.3-21,44.3-28.1
				c-2.4,1-4.8,2-7.2,3c1.6-0.7,3.2-1.3,4.8-1.8c-9.7-16.7-19.5-33.4-29.2-50.1c-4.6,3.9-9.2,7.7-13.8,11.4
				c-2.2,1.8-4.4,3.5-6.7,5.3c-4.2,3.3,3.8-2.9,0.8-0.6c-1.3,0.9-2.5,1.9-3.8,2.9c-8.8,6.6-17.8,14.2-27.8,18.8c2.4-1,4.8-2,7.2-3
				c-2,0.8-4,1.4-6.1,1.8c-15.4,3.1-25.7,22.3-21,36.9C76.7,418.1,91.8,425.9,108.3,422.6L108.3,422.6z"/>
		</g>
	</g>
	<g>
		<g>
			<path class="st6" d="M80.2,437.2c1.2,1.2,2.3,2.5,3.4,3.7c0.7,0.9,1.4,1.7,2.1,2.6c-2.8-3.6-3.5-4.6-2.2-2.7
				c1.8,2.7,3.7,5.3,5,8.3c-1-2.4-2-4.8-3-7.2c0.4,1.3,0.8,2.4,1,3.7c-0.4-2.7-0.7-5.3-1.1-8c0.1,0.8,0.1,1.6,0,2.4
				c0.4-2.7,0.7-5.3,1.1-8c-0.1,0.4-0.2,0.7-0.2,1.1c1-2.4,2-4.8,3-7.2c-1.2,2.6-0.3,1.5,2.7-3.3c15.7,12.1,31.4,24.2,47.1,36.4
				c12.7-17.1,20.6-35.9,28.4-55.6c-1,2.4-2,4.8-3,7.2c0.4-1,1.7-5.2,2.8-5.6c-0.9,1.2-1.9,2.4-2.8,3.6c0.7-0.8,1.5-1.6,2.3-2.2
				c4.2-3.6,7.5-7.2,10.7-12c1.7-2.5,2.7-5.3,3.9-8.1c0.6-1.3,1.1-2.5,1.8-3.7c0.4-0.8,0.9-1.6,1.4-2.3c-3.5,4.2-4.1,5.2-2,3.1
				c11.6-10.6,11.6-31.8,0-42.4c-12.4-11.4-30-11.3-42.4,0c-5,4.5-8.5,10.3-11.1,16.4c-0.8,1.9-1.6,3.8-2.7,5.6
				c-2.7,4.7,1.9-1.9,1.9-2.2c0.1,0.6-2.8,2.4-3.2,2.7c-11.7,9.7-15.2,24.6-20.8,38c1-2.4,2-4.8,3-7.2c-5.3,12.3-12,23.8-19.9,34.5
				c-4.2,5.6-5.1,16.7-3,23.1c2,6.3,5.5,11.5,10.8,15.6c12.1,9.4,28.2,7.8,39.4-2.3c13.5-12.2,13.1-31.7,5.7-46.9
				c-4.3-8.7-10.9-16.5-17.5-23.5c-10.8-11.4-31.7-11.7-42.4,0C69,407,68.7,425,80.2,437.2L80.2,437.2z"/>
		</g>
	</g>
	<g>
		<g>
			<path class="st6" d="M79.7,437.7c15.7,0,30.7-13.8,30-30c-0.7-16.3-13.2-30-30-30c-15.7,0-30.7,13.8-30,30
				C50.4,423.9,62.8,437.7,79.7,437.7L79.7,437.7z"/>
		</g>
	</g>
	<g>
		<g>
			<path class="st6" d="M55.2,432.2c1.9,1,1.7,0.7-0.7-0.9c-2.3-1.9-2.6-2-1-0.5c0.6,0.7,1.2,1.4,1.9,2.1c3.3,3.4,7.2,6.5,11.5,8.5
				c6.8,3.3,13.9,4.7,20.8,7.5c-2.4-1-4.8-2-7.2-3c1.2,0.6,6.2,3.9,1.5,0.5c-2.1-1.6-6.3-9-3.9-3.4c-1-2.4-2-4.8-3-7.2
				c0.1,0.4,0.2,0.8,0.3,1.2c-0.4-2.7-0.7-5.3-1.1-8c0,0.4,0.1,0.9,0.1,1.3c15-8.6,30.1-17.3,45.1-25.9c-5.2-2.9-10.5-5.7-15.7-8.6
				c-11.3-6.2-27.2-5.3-36.4,4.7c-8.8,9.6-12,24.8-4.7,36.4c4.2,6.6,9.1,12.9,15.1,18c6.2,5.2,12.8,8.8,21.2,8.8
				c7.4,0,16.1-3.3,21.2-8.8c10.2-11.1,12.8-31.6,0-42.4c-1.8-1.5-3.6-3.2-5.2-4.9c-0.7-0.8-3.2-3.9-0.2,0c3.3,4.2,0.1-0.1-0.4-0.9
				c-13.7,13.7-27.4,27.4-41,41c5.2,2.9,10.5,5.7,15.7,8.6c9.5,5.2,20.8,5.5,30.3,0c8.4-4.9,16-15.7,14.9-25.9
				c-0.8-7.6-1.8-13.1-5.7-19.8c-3.5-6.2-9.1-10.9-15-14.7c-7.1-4.6-15.4-5.8-23.1-8.8c2.4,1,4.8,2,7.2,3c-0.7-0.3-1.4-0.6-2.1-1
				c-2-1.1-1-0.3,3,2.5c-0.5-0.9-1.7-1.8-2.4-2.6c-3-3.3-6.8-6.6-10.8-8.5c-7.5-3.4-14.8-5.3-23.1-3c-7,1.9-14.5,7.3-17.9,13.8
				C37.4,404.3,39.9,425.2,55.2,432.2L55.2,432.2z"/>
		</g>
	</g>
	<g>
		<g>
			<path class="st6" d="M186.7,335.6c-0.1-0.1-0.2-0.2-0.3-0.4c1,7.7,2,15.4,3,23.1c0.1-0.2,0.1-0.4,0.2-0.6c-1,2.4-2,4.8-3,7.2
				c0.4-0.6,0.8-1.2,1.3-1.8c-1.6,2-3.1,4-4.7,6.1c0.7-0.9,1.5-1.6,2.3-2.4c5.3-4.9,9.1-14,8.8-21.2c-0.3-6.8-2.3-12.8-6.4-18.2
				c-8.7-11.3-26.1-15.9-38.7-7.7c-1.4,0.9-2.8,1.7-4.3,2.4c2.4-1,4.8-2,7.2-3c-0.4,0.2-0.8,0.3-1.1,0.5c-3.9,0.9-7.3,2.7-10.2,5.4
				c-3.3,2.1-5.8,4.9-7.7,8.4c-3.8,6.4-5.4,15.9-3,23.1c2.3,7.3,6.8,14.3,13.8,17.9c2.4,1,4.8,2,7.2,3c5.3,1.4,10.6,1.4,16,0
				c8.3-1.1,15-7.2,21.2-12.2c-2,1.6-4,3.1-6.1,4.7c1.6-1.2,3.2-2.1,4.9-3c3.7-1.9,7-4.8,10.2-7.4c5.6-4.6,8.8-14.3,8.8-21.2
				c0-7.4-3.3-16.1-8.8-21.2c-5.7-5.2-13.2-9.1-21.2-8.8c-2.7,0.4-5.3,0.7-8,1.1c-5.1,1.4-9.5,4-13.2,7.7c-0.3,0.2-0.6,0.5-0.8,0.7
				c2-1.6,4-3.1,6.1-4.7c-2,1.4-4.2,2.3-6.3,3.6c-3.6,2.3-6.9,5.2-10.2,7.9c2-1.6,4-3.1,6.1-4.7c-1,0.8-2,1.4-3.1,2
				c2.4-1,4.8-2,7.2-3c-0.9,0.4-1.7,0.6-2.6,0.7c5.3,19.3,10.6,38.6,16,57.9c4.3-1.7,8.7-3.3,12.6-5.8
				c-12.1-15.7-24.2-31.4-36.4-47.1c-3.2,3-6,6.5-8.2,10.3c-2.6,4.3-4.5,10.8-4.3,15.7c0.2,5.1,1.3,11.4,4.4,15.5
				c1.9,3.5,4.5,6.3,7.7,8.4c2.9,2.7,6.3,4.4,10.2,5.4c7.2,2,16.7,1.1,23.1-3c6.4-4.1,12-10.3,13.8-17.9
				C191.4,351.4,191.4,341.9,186.7,335.6L186.7,335.6z"/>
		</g>
	</g>
	<g>
		<g>
			<path class="st6" d="M125.2,396.2c15.7,0,30.7-13.8,30-30c-0.7-16.3-13.2-30-30-30c-15.7,0-30.7,13.8-30,30
				C96,382.5,108.4,396.2,125.2,396.2L125.2,396.2z"/>
		</g>
	</g>
	<g>
		<g>
			<path class="st6" d="M116.2,400.2c15.7,0,30.7-13.8,30-30c-0.7-16.3-13.2-30-30-30c-15.7,0-30.7,13.8-30,30
				C87,386.5,99.4,400.2,116.2,400.2L116.2,400.2z"/>
		</g>
	</g>
	<g>
		<g>
			<path class="st6" d="M136.2,390.2c15.7,0,30.7-13.8,30-30c-0.7-16.3-13.2-30-30-30c-15.7,0-30.7,13.8-30,30
				C107,376.5,119.4,390.2,136.2,390.2L136.2,390.2z"/>
		</g>
	</g>
	<g>
		<g>
			<path class="st6" d="M99.4,349.1c-0.4,0.2-0.8,0.5-1.2,0.7c-1.2,0.8-2.4,1.8-3.4,2.6c-1.1,0.8-2.4,1.8-3.5,2.7
				c-0.3,0.3-0.6,0.6-0.9,0.9c-1.9,2.2-3.7,4.6-5.4,7c-2.2,3.4-3.4,7.2-3.6,11.2c-0.9,4-0.7,8,0.5,12c0.9,3.9,2.7,7.3,5.4,10.2
				c2.1,3.3,4.9,5.8,8.4,7.7c2.4,1,4.8,2,7.2,3c5.3,1.4,10.6,1.4,16,0c2.4-1,4.8-2,7.2-3c4.5-2.7,8.1-6.3,10.8-10.8
				c0.1-0.2,0.3-0.4,0.4-0.6c-1.6,2-3.1,4-4.7,6.1c0.5-0.6,1.1-1.2,1.7-1.7c-2,1.6-4,3.1-6.1,4.7c0.5-0.4,1-0.7,1.6-1
				c3.5-1.9,6.3-4.5,8.4-7.7c2.7-2.9,4.4-6.3,5.4-10.2c1.3-4,1.4-8,0.5-12c-0.2-4-1.4-7.7-3.6-11.2c-1.6-2-3.1-4-4.7-6.1
				c-3.7-3.7-8.2-6.3-13.2-7.7c-2.7-0.4-5.3-0.7-8-1.1C109.1,345,104,346.4,99.4,349.1L99.4,349.1z"/>
		</g>
	</g>
	<g>
		<g>
			<path class="st6" d="M80.8,367.9c-0.3,0.6-0.7,1.2-1,1.7c-2.2,3.4-3.4,7.2-3.6,11.2c-0.9,4-0.7,8,0.5,12
				c0.9,3.9,2.7,7.3,5.4,10.2c2.1,3.3,4.9,5.8,8.4,7.7c2.4,1,4.8,2,7.2,3c5.3,1.4,10.6,1.4,16,0c2.4-1,4.8-2,7.2-3
				c4.5-2.7,8.1-6.3,10.8-10.8c0.3-0.6,0.7-1.2,1-1.7c2.2-3.4,3.4-7.2,3.6-11.2c0.9-4,0.7-8-0.5-12c-0.9-3.9-2.7-7.3-5.4-10.2
				c-2.1-3.3-4.9-5.8-8.4-7.7c-2.4-1-4.8-2-7.2-3c-5.3-1.4-10.6-1.4-16,0c-2.4,1-4.8,2-7.2,3C87.1,359.8,83.5,363.3,80.8,367.9
				L80.8,367.9z"/>
		</g>
	</g>
	<g>
		<g>
			<path class="st6" d="M147.8,383.8c15.7,0,30.7-13.8,30-30c-0.7-16.3-13.2-30-30-30c-15.7,0-30.7,13.8-30,30
				C118.5,370,130.9,383.8,147.8,383.8L147.8,383.8z"/>
		</g>
	</g>
	<g>
		<g>
			<path class="st6" d="M186.5,322.8c4.7-4.7,9.8-9.1,15.3-12.9c5.7-3.9,11.9-6.9,17.1-11.4c6.1-5.2-0.6-13.9-7.3-12.5
				c-8.2,1.7-15.5,6.4-22.8,10.4c-8,4.4-16.1,8.9-24.1,13.3c-8.4,4.7-0.9,17.6,7.6,13c7.5-4.1,14.9-8.3,22.4-12.4
				c6.7-3.7,13.4-8.3,20.9-9.9c-2.4-4.2-4.9-8.4-7.3-12.5c-5.1,4.3-11.5,7.1-16.9,11c-5.5,4-10.7,8.4-15.6,13.3
				C169.1,319,179.7,329.6,186.5,322.8L186.5,322.8z"/>
		</g>
	</g>
	<g>
		<g>
			<path class="st6" d="M194.3,327.2c3.9-5.4,8.4-10.3,13.2-14.9c6.3-6-1.7-15.8-9.1-11.8c-6.5,3.5-13.3,6.1-20.2,8.5
				c-6.5,2.2-13.3,5-20.1,5.8c2.4,3.2,4.8,6.3,7.2,9.5c-2.4,1.8-2.8,2.6-1.2,2.5c0.8,0.1,1.6,0,2.4,0c1.7-0.1,3.6-0.4,5.3-0.8
				c3-0.7,5.9-1.9,8.8-2.8c1.2-0.3,2.5-0.8,3.7-0.8c0.2,0-1.5-2.2,0.3,0.5c1.8,2.8,3.9,5.4,5.6,8.2c2.7,4.3,8.1,4.8,11.8,1.5
				c7.5-6.7,13.9-14.3,20.4-21.9c6.2-7.3-4.4-18-10.6-10.6c-6.4,7.6-12.9,15.2-20.4,21.9c3.9,0.5,7.9,1,11.8,1.5
				c-2.8-4.5-5.9-10-10.2-13.4c-4.3-3.4-9.7-3.1-14.8-1.9c-5.1,1.2-9.5,3.3-14.8,3.5c-5.9,0.2-11,2.4-12.6,8.6
				c-1.1,4.2,2.2,10.1,7.2,9.5c8.3-1.1,16.1-3.7,24.1-6.4c8.2-2.8,16.2-5.9,23.8-10c-3-3.9-6.1-7.9-9.1-11.8
				c-5.8,5.5-10.9,11.5-15.6,18c-2.4,3.3-0.5,8.3,2.7,10.3C187.8,332.1,191.9,330.4,194.3,327.2L194.3,327.2z"/>
		</g>
	</g>
	<g>
		<g>
			<path class="st6" d="M190.1,332.5c-3.2-1.8-6.6-3-10.2-3.3c-3.2-0.3-6.4,0.7-9.5,0.1c-1.7-0.3-8.1-2.5-9.4-0.8
				c-1.3,0-0.8,0.5,1.4,1.4c-0.3-0.6-0.5-1.2-0.8-1.8c-0.3-0.8-0.6-1.6-1.2-2.2c-4.1,2.4-5.2,4.3-3.2,5.7c1.1,2,6.1,3.8,8.1,4.3
				c3.2,0.9,6.5,0.9,9.7,0.6c1.6-0.1,3.2-0.5,4.7-0.5c0.8,0.2,1,0,0.6-0.4c0.5,0.5,1,0.9,1.6,1.3c2.9,2.3,6,2.8,9.6,2
				c9.4-2.2,5.4-16.7-4-14.5c-0.3,0.1-0.7,0.2-1,0.2c1.3,0,2.7,0,4,0c0.9,0.2,0.2,0.1-0.3-0.5c-0.6-0.7-1.6-1.3-2.4-1.8
				c-2.1-1.2-4.7-1.5-7.2-1.5c-3.9,0.1-8.6,1.8-12.3,0.1c-3.9-1.8-6.5-4.7-11.2-4.7c-4.8,0-9.1,2.7-10.7,7.2
				c-1.5,4.2-0.2,7.2,1.7,10.9c2.1,4,3.5,7.2,8.3,8.6c2.1,0.6,4.1,0.4,6.2,0.3c2.1-0.1,3.8,0.5,5.9,0.8c4.9,0.8,9.4-1.2,14,1.2
				C191,350,198.6,337.1,190.1,332.5L190.1,332.5z"/>
		</g>
	</g>
	<g>
		<g>
			<path class="st6" d="M208.5,307.2c-3.1,4.1-6.3,8.2-8.7,12.9c-2.1,4.2-3.9,8.4-6.5,12.3c-5.3,8.1,7.6,15.6,13,7.6
				c2.6-3.9,4.4-8.1,6.5-12.3c2.4-4.6,5.5-8.8,8.7-12.9c2.5-3.2,0.5-8.4-2.7-10.3C215,302.2,211,304,208.5,307.2L208.5,307.2z"/>
		</g>
	</g>
	<g>
		<g>
			<path class="st6" d="M210.7,298.5c-2.7,7.8-9.3,14-14,20.6c-5.2,7.4-9.7,15.3-13.5,23.6c-3.6,7.9,5,14.5,11.8,9.1
				c4.2-3.4,9.7-6.6,9.7-12.7c0-2.2-0.9-4.3-2-6.2c-1.6-2.7-1.7-1.4-0.3-3.8c2.4-4.1,4.3-7.7,8-10.7c4-3.3,7.6-5.8,9-11.1
				c2.5-9.3-11.9-13.3-14.5-4c-0.6,2.3-5.3,4.5-7,6.1c-3,2.9-5.5,6.4-7.5,10.1c-2.1,3.8-4.5,8.3-4.3,12.8c0.1,2.1,0.8,4.1,1.9,5.9
				c0.6,1,1.7,2,1.9,3c0-1.3,0-2.7,0-4c0-0.2-4.6,3.3-5.6,4.1c3.9,3,7.9,6.1,11.8,9.1c4-8.8,8.9-17.2,14.5-25
				c5.4-7.4,11.4-14,14.4-22.8C228.3,293.3,213.8,289.4,210.7,298.5L210.7,298.5z"/>
		</g>
	</g>
	<g>
		<g>
			<path class="st6" d="M214.8,299.4c3.4-1.9,6.9-3.7,9.9-6.2c2.2-1.9,4.4-3.2,7-4.6c-3.7-2.8-7.3-5.6-11-8.5
				c-1.3,3.1-3.3,5.8-5.7,8.1c-7,6.7,3.7,17.3,10.6,10.6c4.4-4.2,7.3-9.1,9.6-14.7c2.6-6.4-5.8-11.4-11-8.5c-3.1,1.7-6,3.4-8.7,5.8
				c-2.4,2.1-5.4,3.5-8.2,5.1C198.9,291.3,206.4,304.3,214.8,299.4L214.8,299.4z"/>
		</g>
	</g>
	<g>
		<g>
			<path class="st6" d="M223.5,296c3.8-4.1,7.8-7.4,12.1-10.8c2.1-1.6,3.9-3.4,5.9-5.1c2.3-1.9,4.9-3.3,6.9-5.6
				c6.4-7.2-4.1-17.8-10.6-10.6c-3.5,3.9-8.5,7-12.6,10.3c-4.4,3.6-8.5,7-12.4,11.2C206.3,292.4,216.9,303.1,223.5,296L223.5,296z"
				/>
		</g>
	</g>
	<g>
		<g>
			<path class="st6" d="M224,283.7c-0.2,0.3-0.3,0.6-0.6,0.9c0.4-0.5,0.8-1,1.2-1.5c-1.3,1.7-2.9,3.2-4.4,4.7c-2.7,2.8-3,7.8,0,10.6
				c3,2.7,7.7,3,10.6,0c2.1-2.2,4.7-4.4,6.2-7.2c1.8-3.5,1-8.3-2.7-10.3C230.8,279.1,226,279.9,224,283.7L224,283.7z"/>
		</g>
	</g>
</g>
</svg>
